# xmcd CD database file
#
# Track frame offsets:
#	150
#	12048
#	23283
#	36475
#	46453
#	60176
#	72071
#	83648
#	96283
#	107582
#	118262
#	131229
#	140135
#	151098
#	159719
#	171801
#	181426
#	190475
#	202420
#	211575
#	221977
#	231353
#	243291
#	254345
#
# Disc length: 3541 seconds
#
# Revision: 0
# Processed by: cddbd v1.5.2PL0 Copyright (c) Steve Scherf et al.
# Submitted via: CDex 1.70beta2
#
DISCID=590dd318
DTITLE=Whitman,Slim - In Love The Whitman Way/Happy Street
DYEAR=2011
DGENRE=Country
TTITLE0=Rainbows Are Back In Style
TTITLE1=Just Loving You
TTITLE2=Yesterday´s Roses
TTITLE3=Walk Through This World With Me
TTITLE4=Unchained Melody
TTITLE5=Just A Few Sweet Kisses
TTITLE6=Little Green Valley
TTITLE7=South Of The Border (Down Mexico Way)
TTITLE8=My Heart Is In The Roses
TTITLE9=How Could I Not Love You
TTITLE10=Jerry
TTITLE11=Never Let You Cry
TTITLE12=Happy Street
TTITLE13=Heaven Says Hello
TTITLE14=You´ve Still Got A Place In My Heart
TTITLE15=Star Of Hope
TTITLE16=My Heart Was Made For Loving You
TTITLE17=Something Pretty
TTITLE18=When My Dreamboat Comes Home
TTITLE19=Livin´ On Lovin´ (And Lovin´ Livin´ With You)
TTITLE20=My Blue Heaven
TTITLE21=I Love You A Thousand Ways
TTITLE22=My Happiness
TTITLE23=Love Lanes Of Yesterday
EXTD=YEAR: 2011
EXTT0=
EXTT1=
EXTT2=
EXTT3=
EXTT4=
EXTT5=
EXTT6=
EXTT7=
EXTT8=
EXTT9=
EXTT10=
EXTT11=
EXTT12=
EXTT13=
EXTT14=
EXTT15=
EXTT16=
EXTT17=
EXTT18=
EXTT19=
EXTT20=
EXTT21=
EXTT22=
EXTT23=
PLAYORDER=
